<svg width="40" height="40" viewBox="0 0 40 40" fill="none" xmlns="http://www.w3.org/2000/svg">
<path d="M39.7952 37.599C36.9522 32.4576 32.3992 28.6013 27.0119 26.7719C29.5928 25.1594 31.5981 22.7019 32.72 19.7769C33.8419 16.8518 34.0182 13.6209 33.2218 10.5804C32.4255 7.53993 30.7006 4.85803 28.312 2.94662C25.9234 1.03521 23.0032 0 20 0C16.9968 0 14.0766 1.03521 11.688 2.94662C9.29941 4.85803 7.57447 7.53993 6.77814 10.5804C5.9818 13.6209 6.15811 16.8518 7.27998 19.7769C8.40185 22.7019 10.4072 25.1594 12.9881 26.7719C7.60087 28.6013 3.04793 32.4574 0.20483 37.5986C0.104624 37.7804 0.0395135 37.9812 0.0132161 38.1895C-0.0130813 38.3978 -5.06581e-05 38.6095 0.051564 38.8125C0.103179 39.0155 0.192366 39.2058 0.314035 39.3726C0.435704 39.5394 0.587471 39.6794 0.760671 39.7846C0.933871 39.8898 1.12511 39.9582 1.32348 39.9858C1.52184 40.0134 1.72344 39.9997 1.91677 39.9455C2.11009 39.8913 2.29136 39.7977 2.45022 39.6699C2.60908 39.5422 2.74242 39.3828 2.84262 39.201C4.58202 36.0394 7.08323 33.414 10.0949 31.5888C13.1067 29.7636 16.5228 28.8027 20.0002 28.8028C23.4776 28.8028 26.8937 29.7638 29.9054 31.589C32.9171 33.4143 35.4182 36.0397 37.1576 39.2014C37.2578 39.3832 37.3911 39.5426 37.5499 39.6703C37.7088 39.7981 37.8901 39.8917 38.0834 39.9459C38.2767 40.0001 38.4783 40.0137 38.6766 39.9861C38.875 39.9585 39.0662 39.8901 39.2394 39.7849C39.4126 39.6797 39.5644 39.5397 39.686 39.3729C39.8077 39.2061 39.8968 39.0158 39.9484 38.8128C40.0001 38.6098 40.0131 38.3981 39.9868 38.1899C39.9605 37.9816 39.8954 37.7808 39.7952 37.599ZM9.33445 14.4045C9.33445 12.1896 9.95997 10.0245 11.1319 8.18289C12.3038 6.34128 13.9696 4.90592 15.9184 4.05831C17.8673 3.21071 20.0117 2.98894 22.0806 3.42105C24.1495 3.85315 26.0499 4.91972 27.5415 6.48588C29.0331 8.05204 30.0489 10.0475 30.4604 12.2198C30.8719 14.3921 30.6607 16.6438 29.8535 18.6901C29.0462 20.7364 27.6792 22.4854 25.9253 23.7159C24.1714 24.9464 22.1093 25.6032 19.9999 25.6032C17.1722 25.5998 14.4613 24.4189 12.4619 22.3194C10.4624 20.22 9.33768 17.3736 9.33445 14.4045Z" fill="white"/>
</svg>
