<svg width="86" height="83" viewBox="0 0 86 83" fill="none" xmlns="http://www.w3.org/2000/svg">
<path d="M43.0819 82.36C36.7219 82.36 30.9319 81.34 25.7119 79.3C20.4919 77.26 15.9919 74.38 12.2119 70.66C8.43191 66.94 5.52191 62.59 3.48191 57.61C1.44191 52.57 0.421914 47.08 0.421914 41.14C0.421914 35.2 1.44191 29.74 3.48191 24.76C5.52191 19.78 8.43191 15.46 12.2119 11.8C16.0519 8.14 20.6119 5.29 25.8919 3.25C31.1719 1.21 37.0219 0.189995 43.4419 0.189995C49.6219 0.189995 55.2919 1.18 60.4519 3.15999C65.6119 5.08 70.0519 7.81 73.7719 11.35C77.5519 14.83 80.4619 18.97 82.5019 23.77C84.6019 28.57 85.6519 33.85 85.6519 39.61C85.6519 44.77 84.9619 49.24 83.5819 53.02C82.2019 56.74 80.2219 59.59 77.6419 61.57C75.1219 63.55 72.0319 64.54 68.3719 64.54C64.6519 64.54 61.6819 63.43 59.4619 61.21C57.3019 58.99 56.2219 55.78 56.2219 51.58V46.45L56.5819 41.32L55.7719 29.62V19.36H65.7619V49.96C65.7619 52.24 66.2119 53.86 67.1119 54.82C68.0719 55.72 69.1819 56.17 70.4419 56.17C72.0619 56.17 73.4419 55.54 74.5819 54.28C75.7219 53.02 76.5619 51.16 77.1019 48.7C77.7019 46.24 78.0019 43.27 78.0019 39.79C78.0019 34.99 77.1619 30.61 75.4819 26.65C73.8619 22.69 71.4919 19.3 68.3719 16.48C65.3119 13.6 61.6519 11.41 57.3919 9.91C53.1919 8.35 48.5419 7.57 43.4419 7.57C38.2219 7.57 33.4819 8.41 29.2219 10.09C24.9619 11.71 21.3019 14.02 18.2419 17.02C15.1819 20.02 12.8119 23.59 11.1319 27.73C9.51191 31.81 8.70191 36.28 8.70191 41.14C8.70191 46.12 9.51191 50.68 11.1319 54.82C12.7519 58.96 15.0619 62.5 18.0619 65.44C21.1219 68.44 24.7519 70.75 28.9519 72.37C33.1519 74.05 37.8619 74.89 43.0819 74.89C45.8419 74.89 48.7519 74.56 51.8119 73.9C54.8719 73.3 57.7819 72.31 60.5419 70.93L62.9719 78.13C60.2119 79.51 57.0319 80.56 53.4319 81.28C49.8319 82 46.3819 82.36 43.0819 82.36ZM40.7419 64.54C36.6019 64.54 32.9119 63.58 29.6719 61.66C26.4319 59.68 23.8519 56.98 21.9319 53.56C20.0719 50.08 19.1419 46.09 19.1419 41.59C19.1419 37.15 20.0719 33.22 21.9319 29.8C23.7919 26.32 26.3419 23.62 29.5819 21.7C32.8819 19.78 36.6019 18.82 40.7419 18.82C44.7619 18.82 48.2719 19.72 51.2719 21.52C54.2719 23.26 56.6119 25.81 58.2919 29.17C59.9719 32.53 60.8119 36.67 60.8119 41.59C60.8119 46.51 60.0019 50.68 58.3819 54.1C56.7619 57.52 54.4519 60.13 51.4519 61.93C48.4519 63.67 44.8819 64.54 40.7419 64.54ZM42.6319 55.81C45.2119 55.81 47.4919 55.27 49.4719 54.19C51.4519 53.05 53.0119 51.4 54.1519 49.24C55.3519 47.08 55.9519 44.53 55.9519 41.59C55.9519 38.59 55.3519 36.07 54.1519 34.03C53.0119 31.93 51.4519 30.34 49.4719 29.26C47.4919 28.12 45.2119 27.55 42.6319 27.55C39.9919 27.55 37.6519 28.12 35.6119 29.26C33.6319 30.4 32.0719 32.02 30.9319 34.12C29.8519 36.22 29.3119 38.71 29.3119 41.59C29.3119 44.53 29.8519 47.05 30.9319 49.15C32.0719 51.25 33.6319 52.9 35.6119 54.1C37.6519 55.24 39.9919 55.81 42.6319 55.81Z" fill="black"/>
</svg>
