<svg width="70" height="70" viewBox="0 0 70 70" fill="none" xmlns="http://www.w3.org/2000/svg">
<path d="M0 10C0 4.47715 4.47715 0 10 0H60C65.5229 0 70 4.47715 70 10V60C70 65.5229 65.5228 70 60 70H10C4.47715 70 0 65.5229 0 60V10Z" fill="#305678" fill-opacity="0.7"/>
<path d="M31.5736 40.4C31.5736 39.1667 31.7736 38.0833 32.1736 37.15C32.5736 36.2167 33.0903 35.3833 33.7236 34.65C34.357 33.9167 35.0236 33.2333 35.7236 32.6C36.457 31.9667 37.1403 31.35 37.7736 30.75C38.407 30.15 38.9236 29.5167 39.3236 28.85C39.7236 28.1833 39.9236 27.4333 39.9236 26.6C39.9236 25.2 39.357 24.0667 38.2236 23.2C37.0903 22.3333 35.5736 21.9 33.6736 21.9C31.8403 21.9 30.2403 22.2333 28.8736 22.9C27.5403 23.5667 26.4236 24.5167 25.5236 25.75L20.6736 22.6C22.0736 20.7 23.907 19.2167 26.1736 18.15C28.4403 17.05 31.1236 16.5 34.2236 16.5C36.657 16.5 38.7903 16.8667 40.6236 17.6C42.457 18.3 43.8903 19.3333 44.9236 20.7C45.957 22.0333 46.4736 23.6667 46.4736 25.6C46.4736 26.9333 46.257 28.1 45.8236 29.1C45.4236 30.1 44.8903 30.9833 44.2236 31.75C43.5903 32.4833 42.907 33.1833 42.1736 33.85C41.4403 34.4833 40.7403 35.1167 40.0736 35.75C39.4403 36.3833 38.9236 37.0667 38.5236 37.8C38.1236 38.5333 37.9236 39.4 37.9236 40.4H31.5736ZM34.7736 52.35C33.607 52.35 32.6403 51.9667 31.8736 51.2C31.1403 50.4333 30.7736 49.5167 30.7736 48.45C30.7736 47.3833 31.1403 46.4833 31.8736 45.75C32.6403 44.9833 33.607 44.6 34.7736 44.6C35.9403 44.6 36.8903 44.9833 37.6236 45.75C38.357 46.4833 38.7236 47.3833 38.7236 48.45C38.7236 49.5167 38.357 50.4333 37.6236 51.2C36.8903 51.9667 35.9403 52.35 34.7736 52.35Z" fill="white"/>
</svg>
